<?xml version="1.0" encoding="UTF-8" standalone="no"?>
<!-- Created with Inkscape (http://www.inkscape.org/) -->

<svg
   width="128mm"
   height="128mm"
   viewBox="0 0 128 128"
   version="1.1"
   id="svg1"
   xmlns="http://www.w3.org/2000/svg"
   xmlns:svg="http://www.w3.org/2000/svg">
  <defs
     id="defs1" />
  <g
     id="layer1"
     transform="translate(-5.812675,-59.233925)">
    <path
       style="fill:#1b1b1b;fill-opacity:1;stroke-width:0.264583"
       id="path1"
       d="m 129.81641,154.31267 c -8.37302,7.12468 -38.79601,12.70546 -49.152673,9.01656 -10.356662,-3.68891 -30.40126,-27.2456 -32.384902,-38.05919 -1.983643,-10.81358 8.394746,-39.951056 16.767766,-47.075734 8.37302,-7.124679 38.796009,-12.705467 49.152669,-9.016558 10.35666,3.688909 30.40126,27.245594 32.3849,38.059182 1.98364,10.81359 -8.39474,39.95106 -16.76776,47.07574 z"
       transform="matrix(1.1989312,-0.42141228,0.42141228,1.1989312,-95.664181,24.958735)" />
    <g
       id="path2"
       style="opacity:1"
       transform="matrix(0.66323366,0,0,0.66323366,3.3343801,20.129531)">
      <path
         style="baseline-shift:baseline;display:inline;overflow:visible;vector-effect:none;fill:#1b1b1b;stroke-linecap:round;stroke-linejoin:round;enable-background:accumulate;stop-color:#000000;stop-opacity:1"
         d="M 74.457594,202.33644 107.94967,228.90866 88.850885,76.671948 120.40541,105.45852 60.617894,152.79031 93.002795,191.54147 135.35228,159.71016 95.493943,141.44176 80.27027,155.55824 89.404472,166.35321"
         id="path3" />
      <path
         style="baseline-shift:baseline;display:inline;overflow:visible;vector-effect:none;fill:#ff0303;stroke-linecap:round;stroke-linejoin:round;enable-background:accumulate;stop-color:#000000;stop-opacity:1"
         d="m 87.025391,73.148437 c -1.476297,0.764461 -2.319755,2.367966 -2.113282,4.017579 l 5.857422,46.691404 -32.615234,25.82031 c -1.751662,1.38625 -2.014805,3.94439 -0.582031,5.65821 l 32.384765,38.75 c 1.354241,1.62098 3.740768,1.8974 5.429688,0.6289 l 3.904297,-2.93554 3.509764,27.97851 -25.876952,-16.44854 c -2.201603,-1.36254 -4.559876,-2.80479 -4.814988,-2.47135 -0.670557,0.81763 1.00112,2.9683 3.202922,4.53819 l 28.648288,21.65918 c 2.78528,2.20832 5.80812,-0.97618 5.36633,-4.5031 l -2.72482,-36.24703 31.13477,-23.40235 c 2.40469,-1.80698 2.00388,-5.52784 -0.73047,-6.78125 l -36.27539,-16.62695 -1.527345,-12.16797 23.666015,-18.73633 c 1.91742,-1.51896 2.01778,-4.39401 0.21094,-6.04297 L 91.525391,73.740234 c -1.22812,-1.120037 -3.024053,-1.356221 -4.5,-0.591797 z m 7.103515,13.710938 20.152344,18.384765 -16.234375,12.85156 z m -2.203125,46.208985 0.705078,5.61523 -12.17168,13.96485 c -1.555228,1.44244 -1.799327,3.75491 -0.429893,5.37479 l 8.072199,9.00272 c 1.415668,1.67377 3.319169,2.25599 3.769404,1.6229 0.596697,-0.38869 -0.124858,-2.25712 -1.247732,-4.17476 L 85.75,155.89062 l 8.097656,-7.50781 4.304688,34.32227 -4.521485,3.39844 -27.353515,-32.73047 z m 9.966799,15.67187 25.74805,11.80079 -22.17774,16.66796 z"
         id="path4" />
    </g>
  </g>
</svg>
