<?xml version="1.0" encoding="UTF-8" standalone="no"?>
<!-- Created with Inkscape (http://www.inkscape.org/) -->

<svg
   width="130mm"
   height="130mm"
   viewBox="0 0 130 130"
   version="1.1"
   id="svg1"
   sodipodi:docname="org.voidpulse.VoidPulse.svg"
   inkscape:version="1.4.3 (unknown)"
   xmlns:inkscape="http://www.inkscape.org/namespaces/inkscape"
   xmlns:sodipodi="http://sodipodi.sourceforge.net/DTD/sodipodi-0.dtd"
   xmlns="http://www.w3.org/2000/svg"
   xmlns:svg="http://www.w3.org/2000/svg">
  <sodipodi:namedview
     id="namedview1"
     pagecolor="#505050"
     bordercolor="#eeeeee"
     borderopacity="1"
     inkscape:showpageshadow="0"
     inkscape:pageopacity="0"
     inkscape:pagecheckerboard="0"
     inkscape:deskcolor="#505050"
     inkscape:document-units="mm"
     inkscape:zoom="1.1887093"
     inkscape:cx="253.21582"
     inkscape:cy="316.30946"
     inkscape:window-width="1920"
     inkscape:window-height="1139"
     inkscape:window-x="0"
     inkscape:window-y="0"
     inkscape:window-maximized="1"
     inkscape:current-layer="layer1" />
  <defs
     id="defs1">
    <inkscape:path-effect
       effect="fillet_chamfer"
       id="path-effect1"
       is_visible="true"
       lpeversion="1"
       nodesatellites_param="F,0,0,1,0,0,0,1 @ F,0,0,1,0,0,0,1 @ F,0,0,1,0,4.429279,0,1 @ F,0,0,1,0,0,0,1 @ F,0,0,1,0,0,0,1 @ F,0,0,1,0,0,0,1 @ F,0,0,1,0,0,0,1 @ F,0,0,1,0,1.1599355,0,1 @ F,0,0,1,0,2.6524234,0,1 @ F,0,0,1,0,0,0,1 @ F,0,0,1,0,0,0,1 @ F,0,0,1,0,0,0,1 @ F,0,0,1,0,0,0,1 @ F,0,0,1,0,0,0,1 @ F,0,0,1,0,3.0309635,0,1 @ F,0,0,1,0,0,0,1 @ F,0,0,1,0,0,0,1 @ F,0,0,1,0,0,0,1 @ F,0,0,1,0,3.9282534,0,1 @ F,0,0,1,0,0,0,1 @ F,0,0,1,0,0,0,1 @ F,0,0,1,0,0,0,1 | F,0,0,1,0,4.2363905,0,1 @ F,0,0,1,0,3.6828668,0,1 @ F,0,0,1,0,3.7187084,0,1 | F,0,0,1,0,3.0833831,0,1 @ F,0,0,1,0,0,0,1 @ F,0,0,1,0,0,0,1 @ F,0,0,1,0,0,0,1 @ F,0,0,1,0,0,0,1 @ F,0,0,1,0,0,0,1 @ F,0,0,1,0,0,0,1 @ F,0,0,1,0,1.88064,0,1 @ F,0,0,1,0,2.4947148,0,1 @ F,0,0,1,0,1.7933565,0,1 @ F,0,0,1,0,3.3142873,0,1 @ F,0,0,1,0,6.0415383,0,1 | F,0,0,1,0,3.0370332,0,1 @ F,0,0,1,0,3.0938777,0,1 @ F,0,0,1,0,2.771931,0,1"
       radius="0"
       unit="px"
       method="auto"
       mode="F"
       chamfer_steps="1"
       flexible="false"
       use_knot_distance="true"
       apply_no_radius="true"
       apply_with_radius="true"
       only_selected="false"
       hide_knots="false" />
  </defs>
  <g
     id="layer1"
     transform="translate(-4.8126723,-58.279837)">
    <path
       style="fill:#1b1b1b;fill-opacity:1;stroke:#1b1b1b;stroke-width:2.236;stroke-dasharray:none;stroke-opacity:1;stroke-linejoin:round;paint-order:markers fill stroke"
       id="path1"
       d="M 124.67856,155.26278 C 117.64231,167.33327 83.519047,186.84487 69.547572,186.78656 55.576095,186.72823 21.616923,166.93242 14.681693,154.8036 7.7464661,142.67479 7.9105503,103.36738 14.946798,91.296892 21.983046,79.226398 56.106304,59.714796 70.077779,59.773121 c 13.971474,0.05832 47.930651,19.854128 54.865871,31.982946 6.93523,12.128823 6.77115,51.436223 -0.26509,63.506713 z" />
    <g
       id="path2"
       style="opacity:1"
       transform="matrix(0.66323366,0,0,0.66323366,5.7941294,20.129531)">
      <path
         style="baseline-shift:baseline;display:inline;overflow:visible;vector-effect:none;fill:#1b1b1b;stroke-linecap:round;stroke-linejoin:round;enable-background:accumulate;stop-color:#000000;stop-opacity:1"
         d="M 72.997378,205.07248 106.48945,231.6447 87.390669,79.407988 118.94519,108.19456 59.157678,155.52635 91.542579,194.27751 133.89206,162.4462 94.033727,144.1778 l -15.223673,14.11648 9.134202,10.79497"
         id="path3" />
      <path
         style="baseline-shift:baseline;display:inline;overflow:visible;vector-effect:none;fill:#ff0303;stroke-linecap:round;stroke-linejoin:round;enable-background:accumulate;stop-color:#000000;stop-opacity:1"
         d="m 87.025391,73.148437 c -1.476297,0.764461 -2.319755,2.367966 -2.113282,4.017579 l 4.445179,35.604064 a 7.4861696,7.4861696 113.4946 0 1 -3.039425,6.99201 l -35.071622,25.38223 c -1.751662,1.38625 -2.014805,3.94439 -0.582031,5.65821 l 39.292821,43.28341 c 1.354241,1.62098 3.740768,1.8974 5.429688,0.6289 l 2.977183,-2.23847 a 0.67254742,0.67254742 22.955661 0 1 1.071491,0.45385 l 3.035237,24.19579 a 1.2483627,1.2483627 147.64587 0 1 -1.90833,1.20892 L 76.923828,203.30927 c -2.201603,-1.36254 -4.559876,-2.80479 -4.814988,-2.47135 -0.670557,0.81763 1.00112,2.9683 3.202922,4.53819 l 28.648288,21.65918 c 2.78528,2.20832 5.80812,-0.97618 5.36633,-4.5031 l -2.49761,-33.22459 a 5.5397474,5.5397474 114.38536 0 1 2.19564,-4.84357 l 28.71192,-21.58122 c 2.40469,-1.80698 2.00388,-5.52784 -0.73047,-6.78125 l -36.27539,-16.62695 -1.038103,-8.2703 a 6.9735371,6.9735371 112.23849 0 1 2.590643,-6.33601 l 20.58613,-16.29799 c 1.91742,-1.51896 2.01778,-4.39401 0.21094,-6.04297 L 91.525391,73.740234 c -1.22812,-1.120037 -3.024053,-1.356221 -4.5,-0.591797 z m 8.209509,14.277604 13.80531,13.318209 a 3.1181322,3.1181322 93.717938 0 1 -0.30863,4.74948 l -8.776141,6.50237 a 2.2611353,2.2611353 22.16331 0 1 -3.578532,-1.4577 L 92.858816,88.667355 A 1.4129865,1.4129865 152.41653 0 1 95.2349,87.426041 Z m -3.097952,48.718459 0.278034,4.05023 -11.955803,12.45371 c -1.555228,1.44244 -1.799327,3.75491 -0.429893,5.37479 l 8.072199,9.00272 c 1.415668,1.67377 3.319169,2.25599 3.769404,1.6229 0.596697,-0.38869 -0.124858,-2.25712 -1.247732,-4.17476 l -3.944653,-6.94802 a 1.8229822,1.8229822 106.30671 0 1 0.735053,-2.5126 l 4.22735,-2.22895 a 1.749885,1.749885 27.151378 0 1 2.549455,1.3075 l 3.9315,28.34785 a 3.192319,3.192319 111.43021 0 1 -1.142528,2.91086 l -0.997562,0.81486 a 3.1672376,3.1672376 7.0559614 0 1 -4.54491,-0.56255 L 70.746721,157.78876 a 6.2648134,6.2648134 97.31623 0 1 1.107602,-8.62679 L 89.520195,134.9972 a 1.6120847,1.6120847 23.674912 0 1 2.616753,1.1473 z m 12.507702,16.47065 20.1924,9.42382 a 1.8769737,1.8769737 83.774465 0 1 0.34804,3.19057 l -17.09043,13.09956 a 1.6156667,1.6156667 22.293894 0 1 -2.58305,-1.05906 l -3.19937,-22.93139 a 1.6503082,1.6503082 143.53797 0 1 2.33241,-1.7235 z"
         id="path4"
         sodipodi:nodetypes="cccccccccccccccccccccccccccccccccccccccccccc"
         inkscape:path-effect="#path-effect1"
         inkscape:original-d="m 87.025391,73.148437 c -1.476297,0.764461 -2.319755,2.367966 -2.113282,4.017579 l 4.993916,39.999224 -38.659784,27.97908 c -1.751662,1.38625 -2.014805,3.94439 -0.582031,5.65821 l 39.292821,43.28341 c 1.354241,1.62098 3.740768,1.8974 5.429688,0.6289 l 3.904297,-2.93554 3.509764,27.97851 -25.876952,-16.44854 c -2.201603,-1.36254 -4.559876,-2.80479 -4.814988,-2.47135 -0.670557,0.81763 1.00112,2.9683 3.202922,4.53819 l 28.648288,21.65918 c 2.78528,2.20832 5.80812,-0.97618 5.36633,-4.5031 l -2.72482,-36.24703 31.13477,-23.40235 c 2.40469,-1.80698 2.00388,-5.52784 -0.73047,-6.78125 l -36.27539,-16.62695 -1.527345,-12.16797 23.666015,-18.73633 c 1.91742,-1.51896 2.01778,-4.39401 0.21094,-6.04297 L 91.525391,73.740234 c -1.22812,-1.120037 -3.024053,-1.356221 -4.5,-0.591797 z m 5.160624,11.336294 19.504715,18.816519 -14.723238,10.90866 z m -0.260234,48.583629 0.489201,7.12637 -11.955803,12.45371 c -1.555228,1.44244 -1.799327,3.75491 -0.429893,5.37479 l 8.072199,9.00272 c 1.415668,1.67377 3.319169,2.25599 3.769404,1.6229 0.596697,-0.38869 -0.124858,-2.25712 -1.247732,-4.17476 L 85.75,155.89062 l 8.097656,-4.26966 4.520565,32.59526 -4.953239,4.04606 -26.274131,-35.32098 z m 9.966799,18.26239 25.74805,12.01666 -21.74599,16.66797 z"
         transform="matrix(1.1558197,0,0,1.1543195,-12.735688,-17.891896)" />
    </g>
  </g>
</svg>
